<?xml version="1.0" encoding="UTF-8"?>
<svg width="24px" height="24px" viewBox="0 0 24 24" version="1.1" xmlns="http://www.w3.org/2000/svg" xmlns:xlink="http://www.w3.org/1999/xlink">
    <title>展开箭头icon</title>
    <g id="展开箭头icon" stroke="none" stroke-width="1" fill="none" fill-rule="evenodd">
        <path d="M12.0172386,15.0031482 L11.9672972,15.0026733 C11.884286,14.9991291 11.8011571,14.9817497 11.7214504,14.9497717 L11.6570365,14.9204024 L11.5933744,14.8834686 L7.19829779,12.0476346 C6.85024637,11.8230615 6.75014742,11.3588576 6.97472054,11.0108062 C7.17887791,10.6943958 7.58107726,10.5829048 7.91401335,10.7339738 L8.01154897,10.7872289 L12,13.361 L15.988451,10.7872289 C16.3365024,10.5626558 16.8007064,10.6627548 17.0252795,11.0108062 C17.2294368,11.3272166 17.1652702,11.7396208 16.8904201,11.9807135 L16.8017022,12.0476346 L12.4066256,14.8834686 C12.3644789,14.9106292 12.3224506,14.9321418 12.278928,14.949534 C12.2255379,14.9710111 12.1707951,14.9858944 12.1156362,14.9944803 L12.0172386,15.0031482 Z" id="形状结合" fill="#111622" fill-rule="nonzero"></path>
    </g>
</svg>