<?xml version="1.0" encoding="UTF-8"?>
<svg width="24px" height="24px" viewBox="0 0 24 24" version="1.1" xmlns="http://www.w3.org/2000/svg" xmlns:xlink="http://www.w3.org/1999/xlink">
    <title>搜索icon</title>
    <g id="搜索icon" stroke="none" stroke-width="1" fill="none" fill-rule="evenodd">
        <path d="M11.4238202,4.25152922 C15.2831258,4.25152922 18.4117112,7.38011458 18.4117112,11.2394202 C18.4117112,12.8800845 17.8462939,14.3886886 16.8996875,15.581004 L19.2547644,17.9367464 C19.5476576,18.2296396 19.5476576,18.7045134 19.2547644,18.9974066 C18.9884978,19.2636731 18.5718341,19.2878792 18.2782226,19.0700247 L18.1941042,18.9974066 L15.847038,16.6494766 C14.6423024,17.6356286 13.1021587,18.2273112 11.4238202,18.2273112 C7.5645146,18.2273112 4.43592923,15.0987258 4.43592923,11.2394202 C4.43592923,7.38011458 7.5645146,4.25152922 11.4238202,4.25152922 Z M11.4238202,5.75152922 C8.39294172,5.75152922 5.93592923,8.20854171 5.93592923,11.2394202 C5.93592923,14.2702987 8.39294172,16.7273112 11.4238202,16.7273112 C14.4546987,16.7273112 16.9117112,14.2702987 16.9117112,11.2394202 C16.9117112,8.20854171 14.4546987,5.75152922 11.4238202,5.75152922 Z" id="形状结合" fill="#666666" fill-rule="nonzero"></path>
    </g>
</svg>