<?xml version="1.0" encoding="UTF-8"?>
<svg width="20px" height="20px" viewBox="0 0 20 20" version="1.1" xmlns="http://www.w3.org/2000/svg" xmlns:xlink="http://www.w3.org/1999/xlink">
    <title>消息icon</title>
    <g id="消息icon" stroke="none" stroke-width="1" fill="none" fill-rule="evenodd">
        <path d="M10.0425346,3.72049801 C11.5309636,3.72049801 12.9168745,3.82727876 14.2105115,4.04333349 L14.2105115,4.04333349 L14.7463567,4.14042693 C16.2314809,4.43072685 17.3965968,5.5851872 17.7005288,7.06758173 C17.8878147,7.98104836 17.9808872,8.9727151 17.9808872,10.0425346 C17.9808872,10.9333651 17.9163544,11.7639953 17.7844293,12.5464773 L17.7844293,12.5464773 L17.7156568,12.917429 C17.4150087,14.4041034 16.2483936,15.5632725 14.7598246,15.8543953 C13.3087866,16.138178 11.7222271,16.279502 10,16.279502 C8.4954771,16.279502 7.09455107,16.1716488 5.78702022,15.9534601 L5.78702022,15.9534601 L5.24522495,15.8553982 C3.75637951,15.5646237 2.58936754,14.4054962 2.28850692,12.9186561 C2.10849579,12.0290489 2.01911279,11.0562121 2.01911279,10 C2.01911279,9.09860164 2.08421385,8.25799841 2.21725038,7.46619798 L2.21725038,7.46619798 L2.28663951,7.09056216 C2.58673431,5.60136974 3.75562784,4.44034838 5.24681412,4.15032348 C6.72183115,3.86344337 8.32041204,3.72049801 10.0425346,3.72049801 Z M3.91568245,6.89355248 C3.84611845,7.04569523 3.79326972,7.20687679 3.75941846,7.37476265 L3.75941846,7.37476265 L3.69445654,7.72642278 C3.57780909,8.42119144 3.51911279,9.1790946 3.51911279,10 C3.51911279,10.9600577 3.59939358,11.8338269 3.75871005,12.621162 C3.93922693,13.5132685 4.63943607,14.208747 5.52246308,14.3812783 L5.52246308,14.3812783 L6.0439052,14.4756558 C7.25673362,14.6779759 8.57547565,14.779502 10,14.779502 C11.6291295,14.779502 13.1198183,14.6467178 14.4719205,14.3822841 C15.3650616,14.2076105 16.0650305,13.5121093 16.2430672,12.63225 L16.2430672,12.63225 L16.3073807,12.2853624 C16.4228009,11.6002606 16.4808872,10.8526071 16.4808872,10.0425346 C16.4808872,9.07043206 16.397243,8.17922169 16.2310957,7.36885622 C16.2032682,7.23313069 16.1634086,7.10198691 16.1127072,6.97657499 L11.9299922,9.44847393 C10.804643,10.1133413 9.41983831,10.1417746 8.27337141,9.53697503 L8.07362914,9.423673 Z M10.0425346,5.22049801 C8.41334967,5.22049801 6.91024122,5.35490621 5.53318712,5.62273324 C5.34628825,5.65908371 5.16782754,5.71823836 5.00081525,5.79711793 L8.85317535,8.14214747 C9.51193728,8.54286938 10.325919,8.57642462 11.0112522,8.24098756 L11.1669932,8.15702802 L15.09322,5.83785315 C14.9001235,5.73395318 14.6902289,5.65778841 14.4688541,5.61449727 L14.4688541,5.61449727 L13.9533806,5.52109475 C12.7545591,5.32094148 11.4509,5.22049801 10.0425346,5.22049801 Z" id="形状结合" fill="#111622" fill-rule="nonzero"></path>
    </g>
</svg>