<?xml version="1.0" standalone="no"?>
<!DOCTYPE svg PUBLIC "-//W3C//DTD SVG 1.1//EN" "http://www.w3.org/Graphics/SVG/1.1/DTD/svg11.dtd">
<svg t="1733825179846" class="icon" viewBox="0 0 1407 1024" version="1.1" xmlns="http://www.w3.org/2000/svg" p-id="48930" xmlns:xlink="http://www.w3.org/1999/xlink" width="32.9765625" height="24">
<path d="M1238.627638 1024c-95.274733 0-202.481015-35.317761-357.287262-123.593462-59.550215-35.313086-119.091078-47.076322-178.641293-47.076322-65.600146 0-125.061529 11.763236-184.607068 47.076322-154.834298 88.275701-262.063958 123.593462-357.291936 123.593462-53.589115 0-101.245183-29.431467-131.017953-88.275701-23.816346-47.080997-29.777445-105.91588-29.777445-182.43302C0.004681 453.146416 178.650649 0 440.658502 0c35.738544 0 71.472413 17.640179 119.095754 35.317761 47.632691 17.672907 95.284084 41.194704 142.9121 41.194704 41.694968 0 95.284084-23.554525 142.916774-41.194704C887.273424 17.672907 928.94034 0 964.674209 0c268.085837 0 440.653822 453.062259 440.653821 753.291279 0 76.51714-11.917524 135.352023-29.772769 182.43302-29.77277 52.95794-77.400785 88.275701-136.89022 88.275701M714.644659 765.11062c77.405461 0 142.912099 17.644854 214.384513 58.839558 142.907424 82.394083 232.235084 111.802173 315.596968 111.802173 11.917524 0 35.738544-5.881618 47.62334-41.194703 17.850571-35.317761 23.816346-82.394083 23.816346-141.242992 0-264.827103-160.790722-665.006228-351.330837-665.006228-17.855246 0-47.62334 17.640179-77.400786 29.431468-53.589115 23.554525-113.144005 52.95794-178.650643 52.95794-59.545539 0-125.056853-29.431467-178.645969-52.95794-35.729194-11.763236-71.463063-29.431467-83.361885-29.431468-196.496539 0-351.330837 400.179125-351.330837 665.006228 0 58.848909 5.965775 111.802173 23.81167 141.242992 17.855246 35.313086 35.738544 41.194704 47.632691 41.194703 77.400785 0 172.684869-35.317761 315.596969-111.802173 71.467738-41.194704 142.907424-58.839558 226.273984-58.839558h5.956424m-95.279408-223.632399H369.218817a47.338143 47.338143 0 0 1-33.901124-13.63806 46.043065 46.043065 0 0 1-13.694164-33.499041c0-29.431467 17.850571-41.194704 47.62334-41.194704h250.113706a47.314766 47.314766 0 0 1 33.896448 13.605333 46.052415 46.052415 0 0 1 13.736243 33.475664c0 29.431467-23.816346 41.194704-47.632691 41.194704m-125.052178 123.593461a47.338143 47.338143 0 0 1-33.901123-13.610008 46.04774 46.04774 0 0 1-13.731568-33.470989V376.633951a46.052415 46.052415 0 0 1 13.712867-33.452287 47.338143 47.338143 0 0 1 33.859045-13.62871c29.77277 0 47.628016 17.644854 47.628015 47.080997v247.182248c-5.961099 23.554525-23.81167 41.199379-47.628015 41.199379m363.257711-164.788165c0.070131 48.656598 40.100667 88.041932 89.416492 87.990503 49.31115-0.051429 89.248178-39.525596 89.224801-88.182193-0.028052-48.656598-40.011835-88.084011-89.322984-88.084011-49.367254 0.042078-89.355712 39.562999-89.318309 88.275701" fill="#000000" p-id="48931"></path>
</svg>