<?xml version="1.0" encoding="UTF-8"?>
<svg width="24px" height="24px" viewBox="0 0 24 24" version="1.1" xmlns="http://www.w3.org/2000/svg" xmlns:xlink="http://www.w3.org/1999/xlink">
    <title>首页icon-选中态</title>
    <g id="首页icon-选中态" stroke="none" stroke-width="1" fill="none" fill-rule="evenodd">
        <path d="M14.1728504,4.65971325 L18.1728504,7.24768716 C19.3121031,7.98477619 20,9.2491608 20,10.6060679 L20,17 C20,19.209139 18.209139,21 16,21 L8,21 C5.790861,21 4,19.209139 4,17 L4,10.6060679 C4,9.2491608 4.68789694,7.98477619 5.82714958,7.24768716 L9.82714958,4.65971325 C11.1494077,3.80422088 12.8505923,3.80422088 14.1728504,4.65971325 Z M12,12.357832 C11.5581722,12.357832 11.2,12.7160042 11.2,13.157832 L11.2,13.157832 L11.2,16.4962137 C11.2,16.9380415 11.5581722,17.2962137 12,17.2962137 C12.4418278,17.2962137 12.8,16.9380415 12.8,16.4962137 L12.8,16.4962137 L12.8,13.157832 C12.8,12.7160042 12.4418278,12.357832 12,12.357832 Z" id="形状结合" fill="#111622"></path>
    </g>
</svg>