<?xml version="1.0" encoding="UTF-8"?>
<svg width="24px" height="24px" viewBox="0 0 24 24" version="1.1" xmlns="http://www.w3.org/2000/svg" xmlns:xlink="http://www.w3.org/1999/xlink">
    <title>首页icon-未选中态</title>
    <g id="首页icon-未选中态" stroke="none" stroke-width="1" fill="none" fill-rule="evenodd">
        <path d="M14.1728504,4.65971325 L18.1728504,7.24768716 C19.3121031,7.98477619 20,9.2491608 20,10.6060679 L20,17 C20,19.209139 18.209139,21 16,21 L8,21 C5.790861,21 4,19.209139 4,17 L4,10.6060679 C4,9.2491608 4.68789694,7.98477619 5.82714958,7.24768716 L9.82714958,4.65971325 C11.1494077,3.80422088 12.8505923,3.80422088 14.1728504,4.65971325 Z M10.8102681,5.81929858 L10.6419685,5.91910602 L6.64196849,8.50707993 C5.98079508,8.93485481 5.56285864,9.6467909 5.50652677,10.4253234 L5.5,10.6060679 L5.5,17 C5.5,18.3254834 6.53153594,19.4100387 7.83562431,19.4946823 L8,19.5 L16,19.5 C17.3254834,19.5 18.4100387,18.4684641 18.4946823,17.1643757 L18.5,17 L18.5,10.6060679 C18.5,9.81857716 18.1292902,9.08094709 17.5062383,8.61074246 L17.3580315,8.50707993 L13.3580315,5.91910602 C12.5867143,5.4200688 11.6090926,5.38679966 10.8102681,5.81929858 Z M12,12.357832 C12.4418278,12.357832 12.8,12.7160042 12.8,13.157832 L12.8,16.4962137 C12.8,16.9380415 12.4418278,17.2962137 12,17.2962137 C11.5581722,17.2962137 11.2,16.9380415 11.2,16.4962137 L11.2,13.157832 C11.2,12.7160042 11.5581722,12.357832 12,12.357832 Z" id="形状结合" fill="#111622" fill-rule="nonzero"></path>
    </g>
</svg>